<?xml version="1.0" encoding="UTF-8"?>
<svg width="273px" height="17px" viewBox="0 0 273 17" version="1.1" xmlns="http://www.w3.org/2000/svg" xmlns:xlink="http://www.w3.org/1999/xlink">
    <!-- Generator: Sketch 54 (76480) - https://sketchapp.com -->
    <title>ENDEAVOREXPERIENCES LogoMark</title>
    <desc>Created with Sketch.</desc>
    <g id="Page-1" stroke="none" stroke-width="1" fill="none" fill-rule="evenodd">
        <path d="M1.60451302,15.0806452 L10.0504913,15.0806452 L10.0504913,16.5887097 L0,16.5887097 L0,0.411290323 L9.78307244,0.411290323 L9.78307244,1.91935484 L1.60451302,1.91935484 L1.60451302,7.42607527 L9.24823476,7.42607527 L9.24823476,8.93413978 L1.60451302,8.93413978 L1.60451302,15.0806452 Z M24.6487987,14.1209677 L24.6933685,14.1209677 L24.6933685,0.411290323 L26.2978815,0.411290323 L26.2978815,16.5887097 L24.2922402,16.5887097 L14.8880112,2.74193548 L14.8434414,2.74193548 L14.8434414,16.5887097 L13.2389283,16.5887097 L13.2389283,0.411290323 L15.2445696,0.411290323 L24.6487987,14.1209677 Z M31.9822277,15.0806452 L35.1021141,15.0806452 C36.3055049,15.0806452 37.3491708,14.8940431 38.233143,14.5208333 C39.1171153,14.1476236 39.8525097,13.6525568 40.4393484,13.0356183 C41.0261871,12.4186797 41.4607384,11.7179699 41.7430153,10.9334677 C42.0252921,10.1489656 42.1664284,9.33781781 42.1664284,8.5 C42.1664284,7.66218219 42.0252921,6.85103439 41.7430153,6.06653226 C41.4607384,5.28203013 41.0261871,4.58132029 40.4393484,3.96438172 C39.8525097,3.34744315 39.1171153,2.85237642 38.233143,2.47916667 C37.3491708,2.10595692 36.3055049,1.91935484 35.1021141,1.91935484 L31.9822277,1.91935484 L31.9822277,15.0806452 Z M30.3777147,0.411290323 L35.6146669,0.411290323 C36.5952076,0.411290323 37.5794476,0.578851371 38.5674166,0.913978495 C39.5553855,1.24910562 40.4467728,1.75559697 41.2416049,2.43346774 C42.0364371,3.11133851 42.6789787,3.95676017 43.1692491,4.96975806 C43.6595194,5.98275596 43.9046509,7.15949151 43.9046509,8.5 C43.9046509,9.85574155 43.6595194,11.0362853 43.1692491,12.0416667 C42.6789787,13.047048 42.0364371,13.8886615 41.2416049,14.5665323 C40.4467728,15.244403 39.5553855,15.7508944 38.5674166,16.0860215 C37.5794476,16.4211486 36.5952076,16.5887097 35.6146669,16.5887097 L30.3777147,16.5887097 L30.3777147,0.411290323 Z M48.7421707,15.0806452 L57.188149,15.0806452 L57.188149,16.5887097 L47.1376577,16.5887097 L47.1376577,0.411290323 L56.9207302,0.411290323 L56.9207302,1.91935484 L48.7421707,1.91935484 L48.7421707,7.42607527 L56.3858925,7.42607527 L56.3858925,8.93413978 L48.7421707,8.93413978 L48.7421707,15.0806452 Z M62.449082,10.8306452 L69.2905473,10.8306452 L65.8809571,2.33064516 L62.449082,10.8306452 Z M60.1091672,16.5887097 L58.2372354,16.5887097 L65.1009855,0.411290323 L66.6609287,0.411290323 L73.5246789,16.5887097 L71.652747,16.5887097 L69.9145246,12.3387097 L61.8473897,12.3387097 L60.1091672,16.5887097 Z M79.1644552,14.1209677 L79.2090251,14.1209677 L84.3791226,0.411290323 L86.117345,0.411290323 L79.9667118,16.5887097 L78.3621987,16.5887097 L72.3675598,0.411290323 L74.1503521,0.411290323 L79.1644552,14.1209677 Z M101.852182,8.5 C101.852182,7.57078388 101.703618,6.68347197 101.406484,5.83803763 C101.109351,4.9926033 100.682228,4.2500032 100.125102,3.61021505 C99.5679771,2.97042691 98.8882944,2.46012735 98.0860339,2.07930108 C97.2837733,1.6984748 96.3775297,1.50806452 95.3672757,1.50806452 C94.3570217,1.50806452 93.450778,1.6984748 92.6485175,2.07930108 C91.846257,2.46012735 91.1665743,2.97042691 90.6094489,3.61021505 C90.0523235,4.2500032 89.6252005,4.9926033 89.328067,5.83803763 C89.0309334,6.68347197 88.8823689,7.57078388 88.8823689,8.5 C88.8823689,9.42921612 89.0309334,10.316528 89.328067,11.1619624 C89.6252005,12.0073967 90.0523235,12.7499968 90.6094489,13.3897849 C91.1665743,14.0295731 91.846257,14.5398726 92.6485175,14.9206989 C93.450778,15.3015252 94.3570217,15.4919355 95.3672757,15.4919355 C96.3775297,15.4919355 97.2837733,15.3015252 98.0860339,14.9206989 C98.8882944,14.5398726 99.5679771,14.0295731 100.125102,13.3897849 C100.682228,12.7499968 101.109351,12.0073967 101.406484,11.1619624 C101.703618,10.316528 101.852182,9.42921612 101.852182,8.5 Z M103.590405,8.5 C103.590405,9.73387714 103.382415,10.8687224 102.966428,11.9045699 C102.550441,12.9404174 101.974753,13.8353457 101.239348,14.5893817 C100.503942,15.3434177 99.6348396,15.9336896 98.632014,16.3602151 C97.6291883,16.7867405 96.5409531,17 95.3672757,17 C94.1935983,17 93.105363,16.7867405 92.1025374,16.3602151 C91.0997117,15.9336896 90.2306092,15.3434177 89.4952037,14.5893817 C88.7597983,13.8353457 88.1841107,12.9404174 87.7681237,11.9045699 C87.3521368,10.8687224 87.1441465,9.73387714 87.1441465,8.5 C87.1441465,7.26612286 87.3521368,6.13127758 87.7681237,5.09543011 C88.1841107,4.05958263 88.7597983,3.16465431 89.4952037,2.41061828 C90.2306092,1.65658225 91.0997117,1.06631038 92.1025374,0.639784946 C93.105363,0.213259516 94.1935983,0 95.3672757,0 C96.5409531,0 97.6291883,0.213259516 98.632014,0.639784946 C99.6348396,1.06631038 100.503942,1.65658225 101.239348,2.41061828 C101.974753,3.16465431 102.550441,4.05958263 102.966428,5.09543011 C103.382415,6.13127758 103.590405,7.26612286 103.590405,8.5 Z M108.427925,7.56317204 L111.280392,7.56317204 C111.993513,7.56317204 112.598913,7.48700793 113.096612,7.33467742 C113.594311,7.18234691 113.991721,6.98051201 114.288854,6.72916667 C114.585988,6.47782132 114.801406,6.18078128 114.935116,5.83803763 C115.068827,5.49529399 115.135681,5.12589804 115.135681,4.72983871 C115.135681,4.34901243 115.068827,3.9872329 114.935116,3.64448925 C114.801406,3.3017456 114.585988,3.00089735 114.288854,2.74193548 C113.991721,2.48297362 113.594311,2.28113872 113.096612,2.13642473 C112.598913,1.99171075 111.993513,1.91935484 111.280392,1.91935484 L108.427925,1.91935484 L108.427925,7.56317204 Z M108.427925,16.5887097 L106.823412,16.5887097 L106.823412,0.411290323 L111.681521,0.411290323 C113.286042,0.411290323 114.552554,0.769261653 115.481097,1.48521505 C116.409639,2.20116845 116.873903,3.28269886 116.873903,4.72983871 C116.873903,5.85708449 116.528491,6.80532769 115.837655,7.57459677 C115.14682,8.34386585 114.147723,8.78942591 112.840336,8.91129032 L117.386456,16.5887097 L115.425384,16.5887097 L111.102113,9.07123656 L108.427925,9.07123656 L108.427925,16.5887097 Z M126.303809,0.411290323 L136.755428,0.411290323 L136.755428,3.01612903 L129.111707,3.01612903 L129.111707,6.99193548 L136.3543,6.99193548 L136.3543,9.59677419 L129.111707,9.59677419 L129.111707,13.983871 L137.156557,13.983871 L137.156557,16.5887097 L126.303809,16.5887097 L126.303809,0.411290323 Z M143.799154,8.1344086 L138.539917,0.411290323 L142.083216,0.411290323 L145.804795,6.39784946 L149.481804,0.411290323 L152.891394,0.411290323 L147.721297,8.1344086 L153.448517,16.5887097 L149.882932,16.5887097 L145.715655,9.75672043 L141.570663,16.5887097 L138.183358,16.5887097 L143.799154,8.1344086 Z M155.233005,0.411290323 L160.536812,0.411290323 C161.294502,0.411290323 162.026183,0.487454435 162.731875,0.639784946 C163.437567,0.792115457 164.057824,1.04726524 164.592664,1.40524194 C165.127505,1.76321864 165.554628,2.24305255 165.874046,2.84475806 C166.193465,3.44646358 166.353172,4.19668009 166.353172,5.09543011 C166.353172,6.11604453 166.182322,6.93861695 165.840619,7.56317204 C165.498915,8.18772714 165.038365,8.67136925 164.458955,9.0141129 C163.879544,9.35685655 163.20729,9.5891571 162.442171,9.71102151 C161.677052,9.83288591 160.878518,9.8938172 160.046544,9.8938172 L158.040903,9.8938172 L158.040903,16.5887097 L155.233005,16.5887097 L155.233005,0.411290323 Z M159.734555,7.42607527 C160.135686,7.42607527 160.551666,7.41084245 160.98251,7.38037634 C161.413353,7.34991024 161.810764,7.25851331 162.174752,7.1061828 C162.538741,6.95385228 162.83587,6.72535995 163.066148,6.42069892 C163.296427,6.1160379 163.411564,5.68951887 163.411564,5.14112903 C163.411564,4.63843835 163.307569,4.23857675 163.099576,3.94153226 C162.891582,3.64448776 162.624166,3.41599542 162.297319,3.25604839 C161.970472,3.09610135 161.606489,2.9932798 161.205359,2.94758065 C160.804229,2.90188149 160.417961,2.87903226 160.046544,2.87903226 L158.040903,2.87903226 L158.040903,7.42607527 L159.734555,7.42607527 Z M168.873061,0.411290323 L179.324681,0.411290323 L179.324681,3.01612903 L171.680959,3.01612903 L171.680959,6.99193548 L178.923553,6.99193548 L178.923553,9.59677419 L171.680959,9.59677419 L171.680959,13.983871 L179.725809,13.983871 L179.725809,16.5887097 L168.873061,16.5887097 L168.873061,0.411290323 Z M182.513118,0.411290323 L187.995204,0.411290323 C188.752895,0.411290323 189.484575,0.48364623 190.190267,0.628360215 C190.895959,0.7730742 191.523644,1.02060757 192.073341,1.37096774 C192.623039,1.72132792 193.061304,2.19354542 193.388151,2.78763441 C193.714998,3.3817234 193.878419,4.13574812 193.878419,5.04973118 C193.878419,6.22267612 193.562719,7.20519317 192.93131,7.99731183 C192.299902,8.78943048 191.397372,9.2692644 190.223695,9.43682796 L194.413256,16.5887097 L191.025951,16.5887097 L187.371227,9.73387097 L185.321016,9.73387097 L185.321016,16.5887097 L182.513118,16.5887097 L182.513118,0.411290323 Z M187.504936,7.26612903 C187.906067,7.26612903 188.307191,7.247088 188.708321,7.20900538 C189.109451,7.17092275 189.477149,7.07952581 189.811424,6.93481183 C190.145699,6.79009784 190.416829,6.56922192 190.624823,6.27217742 C190.832816,5.97513292 190.936811,5.56003851 190.936811,5.02688172 C190.936811,4.55465714 190.840244,4.17383657 190.647108,3.8844086 C190.453971,3.59498063 190.201411,3.37791291 189.889421,3.23319892 C189.577431,3.08848494 189.232018,2.9932798 188.853173,2.94758065 C188.474328,2.90188149 188.106631,2.87903226 187.75007,2.87903226 L185.321016,2.87903226 L185.321016,7.26612903 L187.504936,7.26612903 Z M196.509733,0.411290323 L199.317631,0.411290323 L199.317631,16.5887097 L196.509733,16.5887097 L196.509733,0.411290323 Z M202.795772,0.411290323 L213.247391,0.411290323 L213.247391,3.01612903 L205.603669,3.01612903 L205.603669,6.99193548 L212.846263,6.99193548 L212.846263,9.59677419 L205.603669,9.59677419 L205.603669,13.983871 L213.648519,13.983871 L213.648519,16.5887097 L202.795772,16.5887097 L202.795772,0.411290323 Z M216.435828,0.411290323 L220.157407,0.411290323 L227.801129,12.4301075 L227.845699,12.4301075 L227.845699,0.411290323 L230.653596,0.411290323 L230.653596,16.5887097 L227.088012,16.5887097 L219.288296,4.18145161 L219.243726,4.18145161 L219.243726,16.5887097 L216.435828,16.5887097 L216.435828,0.411290323 Z M245.029055,4.20430108 C244.449644,3.56451293 243.888813,3.1379939 243.346545,2.92473118 C242.804276,2.71146847 242.258301,2.60483871 241.708604,2.60483871 C240.891487,2.60483871 240.152379,2.75335873 239.491256,3.05040323 C238.830134,3.34744772 238.261875,3.75873393 237.786461,4.28427419 C237.311048,4.80981446 236.94335,5.42293556 236.683359,6.12365591 C236.423367,6.82437626 236.293373,7.57840098 236.293373,8.38575269 C236.293373,9.2540366 236.423367,10.0537598 236.683359,10.7849462 C236.94335,11.5161327 237.311048,12.1482948 237.786461,12.6814516 C238.261875,13.2146084 238.830134,13.633511 239.491256,13.938172 C240.152379,14.2428331 240.891487,14.3951613 241.708604,14.3951613 C242.347441,14.3951613 242.967698,14.2390249 243.569394,13.9267473 C244.171089,13.6144698 244.73192,13.1155948 245.251904,12.4301075 L247.569534,14.1209677 C246.856413,15.1263491 245.987311,15.8575246 244.9622,16.3145161 C243.937089,16.7715077 242.84514,17 241.686319,17 C240.468072,17 239.350124,16.7981651 238.332441,16.3944892 C237.314759,15.9908134 236.438228,15.4195825 235.702823,14.6807796 C234.967417,13.9419766 234.39173,13.0546647 233.975743,12.0188172 C233.559756,10.9829697 233.351766,9.83289163 233.351766,8.56854839 C233.351766,7.27373905 233.559756,6.0970035 233.975743,5.03830645 C234.39173,3.9796094 234.967417,3.07706466 235.702823,2.33064516 C236.438228,1.58422566 237.314759,1.00918661 238.332441,0.605510753 C239.350124,0.201834899 240.468072,0 241.686319,0 C242.756,0 243.747668,0.194218488 244.661354,0.58266129 C245.57504,0.971104093 246.425571,1.62992367 247.212975,2.55913978 L245.029055,4.20430108 Z M249.487731,0.411290323 L259.939351,0.411290323 L259.939351,3.01612903 L252.295629,3.01612903 L252.295629,6.99193548 L259.538223,6.99193548 L259.538223,9.59677419 L252.295629,9.59677419 L252.295629,13.983871 L260.340479,13.983871 L260.340479,16.5887097 L249.487731,16.5887097 L249.487731,0.411290323 Z M270.860649,3.8844086 C270.563516,3.44265012 270.166106,3.11895264 269.668407,2.91330645 C269.170708,2.70766026 268.647018,2.60483871 268.097321,2.60483871 C267.770474,2.60483871 267.454775,2.64292077 267.150213,2.71908602 C266.845651,2.79525128 266.570807,2.91711386 266.325672,3.08467742 C266.080536,3.25224098 265.883688,3.4693087 265.735122,3.7358871 C265.586555,4.00246549 265.512273,4.31854656 265.512273,4.68413978 C265.512273,5.23252962 265.697978,5.65143224 266.069395,5.94086022 C266.440812,6.23028819 266.901362,6.48162976 267.451059,6.69489247 C268.000756,6.90815519 268.602443,7.11379829 269.256136,7.31182796 C269.90983,7.50985762 270.511516,7.78404843 271.061213,8.1344086 C271.61091,8.48476878 272.071461,8.94936987 272.442877,9.52822581 C272.814294,10.1070817 273,10.8763393 273,11.8360215 C273,12.7043054 272.844007,13.4621383 272.532017,14.109543 C272.220027,14.7569477 271.800332,15.2939047 271.27292,15.7204301 C270.745508,16.1469555 270.132679,16.4668448 269.434416,16.6801075 C268.736152,16.8933702 268.000757,17 267.22821,17 C266.247669,17 265.304285,16.832439 264.398027,16.4973118 C263.49177,16.1621847 262.711806,15.5985703 262.058113,14.8064516 L264.175178,12.7043011 C264.516882,13.2374579 264.96629,13.6525523 265.523415,13.9495968 C266.08054,14.2466413 266.671084,14.3951613 267.295065,14.3951613 C267.621912,14.3951613 267.948754,14.3494628 268.275601,14.2580645 C268.602447,14.1666662 268.899577,14.0295708 269.166997,13.8467742 C269.434417,13.6639776 269.649835,13.431677 269.813259,13.1498656 C269.976682,12.8680541 270.058393,12.5443567 270.058393,12.1787634 C270.058393,11.5846744 269.872687,11.1276898 269.50127,10.8077957 C269.129853,10.4879016 268.669303,10.217519 268.119606,9.99663978 C267.569909,9.77576054 266.968223,9.56630923 266.314529,9.36827957 C265.660835,9.17024991 265.059149,8.89986731 264.509452,8.55712366 C263.959755,8.21438001 263.499205,7.75739533 263.127788,7.18615591 C262.756371,6.6149165 262.570665,5.84946716 262.570665,4.88978495 C262.570665,4.05196714 262.7378,3.32840806 263.072076,2.71908602 C263.406351,2.10976398 263.844616,1.60327263 264.386885,1.19959677 C264.929154,0.795920921 265.549411,0.495072675 266.247674,0.297043011 C266.945938,0.0990133468 267.659048,0 268.387025,0 C269.218999,0 270.024962,0.129478992 270.804937,0.38844086 C271.584913,0.647402728 272.28688,1.07392176 272.91086,1.66801075 L270.860649,3.8844086 Z" id="ENDEAVOREXPERIENCES-LogoMark" fill="#FFFFFF" fill-rule="nonzero"></path>
    </g>
</svg>