<?xml version="1.0" encoding="utf-8"?>
<!-- Generator: Adobe Illustrator 16.0.0, SVG Export Plug-In . SVG Version: 6.00 Build 0)  -->
<!DOCTYPE svg PUBLIC "-//W3C//DTD SVG 1.1//EN" "http://www.w3.org/Graphics/SVG/1.1/DTD/svg11.dtd">
<svg version="1.1" id="Layer_1" xmlns="http://www.w3.org/2000/svg" xmlns:xlink="http://www.w3.org/1999/xlink" x="0px" y="0px"
	 width="21.793px" height="21.035px" viewBox="0 0 21.793 21.035" enable-background="new 0 0 21.793 21.035" xml:space="preserve">
<g>
	<polygon fill="#FFFFFF" points="10.897,1.02 8.542,8.265 0.949,8.265 7.091,12.854 4.741,20.212 10.899,15.721 17.055,20.16 
		14.705,12.858 20.846,8.265 13.251,8.265 	"/>
	<path fill="#C08500" d="M4.147,21.035l2.575-8.063L0,7.95h8.313L10.897,0l2.583,7.95h8.313l-6.72,5.027l2.575,8.001L10.9,16.109
		L4.147,21.035z M1.897,8.581l5.562,4.154l-2.125,6.653l5.563-4.058l5.563,4.012l-2.125-6.601l5.563-4.161h-6.876L10.897,2.04
		L8.772,8.581H1.897z"/>
</g>
</svg>
