<?xml version="1.0" encoding="UTF-8"?>
<svg width="20px" height="15px" viewBox="0 0 20 15" version="1.1" xmlns="http://www.w3.org/2000/svg" xmlns:xlink="http://www.w3.org/1999/xlink">
    <!-- Generator: Sketch 54 (76480) - https://sketchapp.com -->
    <title>Path</title>
    <desc>Created with Sketch.</desc>
    <g id="Page-1" stroke="none" stroke-width="1" fill="none" fill-rule="evenodd">
        <g id="Experience-Page-Visual----Copy" transform="translate(-1278.000000, -53.000000)" fill="#FFFFFF" fill-rule="nonzero">
            <g id="Group-26" transform="translate(1271.000000, 47.000000)">
                <g id="noun_Email_370155" transform="translate(7.000000, 5.000000)">
                    <g id="Group-12" transform="translate(0.360000, 0.236842)">
                        <path d="M19.28,13.1184211 L19.28,3.36842105 C19.28,2.06578947 18.2,1 16.88,1 L2.4,1 C1.08,1 0,2.06578947 0,3.36842105 L0,13.1184211 C0,14.4210526 1.08,15.4868421 2.4,15.4868421 L16.84,15.4868421 C18.2,15.4868421 19.28,14.4210526 19.28,13.1184211 Z M16.44,13.3947368 C16.28,13.3947368 16.16,13.3552632 16.04,13.2368421 L11.36,8.89473684 L10.04,9.96052632 C9.92,10.0394737 9.8,10.1184211 9.64,10.1184211 C9.52,10.1184211 9.36,10.0789474 9.24,9.96052632 L7.92,8.85526316 L3.24,13.2368421 C3.12,13.3552632 3,13.3947368 2.84,13.3947368 C2.68,13.3947368 2.52,13.3157895 2.4,13.1973684 C2.2,13 2.2,12.6052632 2.44,12.4078947 L7.04,8.14473684 L2.48,4.31578947 C2.24,4.11842105 2.2,3.72368421 2.4,3.48684211 C2.6,3.25 3,3.21052632 3.24,3.40789474 L9.64,8.77631579 L16.04,3.40789474 C16.28,3.21052632 16.68,3.21052632 16.88,3.48684211 C17.08,3.72368421 17.08,4.11842105 16.8,4.31578947 L12.24,8.14473684 L16.84,12.4078947 C17.08,12.6447368 17.08,13 16.88,13.2368421 C16.76,13.3552632 16.6,13.3947368 16.44,13.3947368 Z" id="Shape"></path>
                    </g>
                </g>
            </g>
        </g>
    </g>
</svg>