<?xml version="1.0" encoding="UTF-8"?>
<svg width="13px" height="17px" viewBox="0 0 13 17" version="1.1" xmlns="http://www.w3.org/2000/svg" xmlns:xlink="http://www.w3.org/1999/xlink">
    <!-- Generator: Sketch 54 (76480) - https://sketchapp.com -->
    <title>Path</title>
    <desc>Created with Sketch.</desc>
    <g id="Page-1" stroke="none" stroke-width="1" fill="none" fill-rule="evenodd">
        <g id="Experience-Page-Visual----Copy" transform="translate(-1121.000000, -52.000000)" fill="#FFFFFF" fill-rule="nonzero">
            <g id="Group-4" transform="translate(1121.000000, 52.000000)">
                <path d="M12.4244614,13.4632379 C12.8704643,13.8547954 12.8916641,14.54345 12.4545793,14.960141 L10.7392026,16.5650341 C10.3268541,16.9528479 9.75334488,17.0726902 9.23324838,16.907971 C8.69664179,16.7391354 8.04029384,16.4878781 7.59029313,16.2530243 C5.61273477,15.1817284 3.75005509,13.2980055 2.36570658,10.9728309 C0.977244973,8.66415317 0.186971223,6.1366525 0.168616014,3.88922415 C0.151702309,3.39438323 0.254299323,2.70155005 0.357011657,2.14892385 C0.455610885,1.61279443 0.826655343,1.17963779 1.34646355,0.993839485 L3.54120929,0.209357747 C4.11877396,0.00291518487 4.73393318,0.34903669 4.87058825,0.926299318 L5.66978013,4.26204843 C5.78158358,4.72798117 5.55501678,5.21468241 5.10124892,5.41694642 L3.44704989,6.14345651 C3.732757,7.31859496 4.05953751,8.25866223 4.81575321,9.51606708 C5.52238099,10.6910192 6.19564264,11.4371174 7.10832936,12.2779556 L8.54760898,11.1474144 C8.91876876,10.8544648 9.47588322,10.8707131 9.83516496,11.1880817 L12.4244614,13.4632379 Z" id="Path"></path>
            </g>
        </g>
    </g>
</svg>