<?xml version="1.0" encoding="UTF-8"?>
<svg width="38px" height="38px" viewBox="0 0 38 38" version="1.1" xmlns="http://www.w3.org/2000/svg" xmlns:xlink="http://www.w3.org/1999/xlink">
    <!-- Generator: Sketch 54 (76480) - https://sketchapp.com -->
    <title>Group 25</title>
    <desc>Created with Sketch.</desc>
    <g id="Page-1" stroke="none" stroke-width="1" fill="none" fill-rule="evenodd">
        <g id="D.WEB-NYFW-HOME" transform="translate(-943.000000, -6443.000000)" fill="#C2C2C2" fill-rule="nonzero">
            <g id="Group-25-Copy" transform="translate(102.000000, 6423.000000)">
                <g id="Group-24" transform="translate(490.000000, 0.000000)">
                    <g id="Group-13" transform="translate(30.000000, 20.000000)">
                        <g id="Group-23" transform="translate(321.000000, -0.000000)">
                            <g id="Group-25" transform="translate(-0.000000, 0.000000)">
                                <path d="M18.7299428,20.64 C18.0174428,20.92 17.3049428,20.2 17.6216094,19.48 L19.7591094,14.4 C19.0070261,13 18.5320261,11.36 18.5320261,9.64 C18.5320261,4.32 22.8070261,1.08357767e-13 28.0716094,1.08357767e-13 C33.3361928,1.08357767e-13 37.6111928,4.32 37.6111928,9.64 C37.6111928,14.96 33.3361928,19.28 28.0716094,19.28 C26.6466094,19.28 25.3007761,18.96 24.0736928,18.4 L18.7299428,20.64 Z M28.0716094,15.61 C28.6930916,15.61 29.2299428,15.0674977 29.2299428,14.44 C29.2299428,13.7858839 28.7066699,13.27 28.0716094,13.27 C27.4237771,13.27 26.9132761,13.7987715 26.9132761,14.44 C26.9132761,15.0941161 27.436549,15.61 28.0716094,15.61 Z M25.9017056,4.48192126 C25.139298,5.13070693 24.7355521,6.06480269 24.7758152,7.08197762 C24.7757761,7.58749772 25.1938773,8.01 25.6966094,8.01 C26.1993416,8.01 26.6174428,7.58749772 26.6174428,7.08 C26.6174428,6.61073763 26.8116751,6.18719271 27.1525066,5.91931113 C27.5047826,5.64243456 27.9276393,5.53312325 28.379972,5.6093056 C28.9522739,5.72499786 29.4514675,6.22944612 29.5663109,6.80970753 C29.7076476,7.59528467 29.2521227,8.29727251 28.5711362,8.51232087 C27.7613196,8.7578197 27.1903594,9.57519421 27.1903594,10.48 L27.1903594,11.52 C27.1903594,12.0274977 27.6084607,12.45 28.1111928,12.45 C28.6139249,12.45 29.0320261,12.0274977 29.0320261,11.52 L29.0320261,10.48 C29.0320261,10.3774 29.0627977,10.315209 29.1233245,10.284627 C30.7193573,9.76105134 31.648543,8.18025944 31.3667763,6.4718634 C31.125594,5.09076477 30.0407269,3.99447796 28.6741374,3.75077655 C27.6853804,3.55093012 26.6773949,3.82183326 25.9017056,4.48192126 Z" id="Combined-Shape"></path>
                                <path d="M33.6132761,28.24 L26.4882761,24.52 C25.4986928,24 24.2320261,24.28 23.5591094,25.16 L20.9466094,28.56 C18.4132761,27.16 16.4736928,25.84 14.2174428,23.56 C11.8028594,21.12 10.5361928,19.16 9.22994278,16.64 L12.5549428,14.04 C13.4653594,13.32 13.7028594,12.08 13.1882761,11.08 L9.50702611,3.92 C8.87369278,2.68 7.29035944,2.24 6.10285944,3.04 L1.59035944,6.08 C0.521609444,6.8 -0.0721405563,8 0.00702611035,9.28 C0.086192777,10.6 0.24452611,12.24 0.561192777,13.36 C1.86744278,18.48 5.07369278,23.8 9.50702611,28.28 C13.9403594,32.8 19.2049428,36.04 24.2716094,37.36 C25.4195261,37.64 27.0424428,37.84 28.3486928,37.92 C29.6153594,38 30.8424428,37.4 31.5549428,36.28 L34.5236928,31.64 C35.2757761,30.44 34.8403594,28.88 33.6132761,28.24 Z" id="Path"></path>
                            </g>
                        </g>
                    </g>
                </g>
            </g>
        </g>
    </g>
</svg>