<svg height="11" viewBox="0 0 16 11" width="16" xmlns="http://www.w3.org/2000/svg"><path d="m1.23066667 0c-.16336411 0-.31915898.03283396-.46153846.09080189l6.86539487 6.1875083c.23930256.21591132.50484102.21568302.74358974 0l6.85255388-6.1875083c-.1423795-.05796793-.2981744-.09080189-.4615385-.09080189zm-1.21794872 1.07015472c-.00779487.05674339-.01271795.11616415-.01271795.1751283v8.30189509c0 .17031321.03550769.33236604.0961641.47995279l4.73716923-4.60495279-4.82051282-4.35202339zm15.97435895 0-4.8076923 4.34554792 4.7307692 4.60493206c.0587283-.14557357.0897436-.30602828.0897436-.47345659v-8.30189509c0-.05896415-.0051282-.11838491-.0127179-.1751283zm-5.7307692 5.18221207-1.05768206.95990566c-.67241026.60753208-1.71228718.6065151-2.38461538 0l-1.05770257-.95343019-4.66666666 4.52714344c.0456.0051886.09403076.0064339.14102564.0064339h13.53846153c.0448 0 .0910769-.0020754.1346051-.0064339z" fill="#fff"/></svg>