<svg height="13" viewBox="0 0 15 13" width="15" xmlns="http://www.w3.org/2000/svg"><g fill="#fff" fill-rule="evenodd"><path d="m10.6438356.2234375c-1.39726026-.203125-1.39726026-.203125-3.12328765-.203125-1.7260274 0-2.23972603.1015625-3.12328768.203125-1.95205479.203125-4.2739726 1.8890625-4.2739726 4.225 0 .284375.2260274.5078125.51369863.5078125h2.46575343c.20547945 0 .34931506-.1625.34931506-.3453125v-1.3609375c0-.365625.28767124-.65.65753425-.65h6.78082196c.369863 0 .6575342.284375.6575342.65v1.3609375c0 .203125.1643836.365625.369863.365625h2.4657534c.2876713 0 .5136987-.2234375.5136987-.5078125.0410959-2.3359375-2.0958904-4.0421875-4.2534247-4.2453125z"/><path d="m14.5068493 8.653125c-.0616438-.0609375-.1027397-.1015625-.1643835-.1421875l-3.6986302-3.7375-.65753423-.5484375c-.4109589-.365625-1.02739726-.56875-1.66438356-.56875h-1.70547945c-.63698631 0-1.23287672.203125-1.66438357.56875l-.65753424.5484375-3.55479452 3.7375c-.06164384.040625-.12328767.08125-.16438356.1421875-.24657535.24375-.39041096.56875-.39041096.934375v1.9296875c0 .7515625.61643835 1.340625 1.35616438 1.340625h11.97945201c.760274 0 1.3561644-.609375 1.3561644-1.340625v-1.9296875c.020548-.365625-.1232876-.690625-.369863-.934375zm-6.96575341 2.640625c-1.58219178 0-2.87671233-1.2796875-2.87671233-2.84375s1.29452055-2.84375 2.87671233-2.84375 2.87671231 1.2796875 2.87671231 2.84375c0 1.584375-1.29452053 2.84375-2.87671231 2.84375z" fill-rule="nonzero"/></g></svg>